<svg id="visual" viewBox="0 0 900 600" width="900" height="600" xmlns="http://www.w3.org/2000/svg" xmlns:xlink="http://www.w3.org/1999/xlink" version="1.1"><rect x="0" y="0" width="900" height="600" fill="#001220"></rect><path d="M0 429L21.5 436C43 443 86 457 128.8 463C171.7 469 214.3 467 257.2 467.5C300 468 343 471 385.8 468C428.7 465 471.3 456 514.2 445C557 434 600 421 642.8 416.7C685.7 412.3 728.3 416.7 771.2 422.7C814 428.7 857 436.3 878.5 440.2L900 444L900 601L878.5 601C857 601 814 601 771.2 601C728.3 601 685.7 601 642.8 601C600 601 557 601 514.2 601C471.3 601 428.7 601 385.8 601C343 601 300 601 257.2 601C214.3 601 171.7 601 128.8 601C86 601 43 601 21.5 601L0 601Z" fill="#4e3686"></path><path d="M0 468L21.5 469.3C43 470.7 86 473.3 128.8 480.5C171.7 487.7 214.3 499.3 257.2 497.5C300 495.7 343 480.3 385.8 480.2C428.7 480 471.3 495 514.2 491.7C557 488.3 600 466.7 642.8 462C685.7 457.3 728.3 469.7 771.2 467.7C814 465.7 857 449.3 878.5 441.2L900 433L900 601L878.5 601C857 601 814 601 771.2 601C728.3 601 685.7 601 642.8 601C600 601 557 601 514.2 601C471.3 601 428.7 601 385.8 601C343 601 300 601 257.2 601C214.3 601 171.7 601 128.8 601C86 601 43 601 21.5 601L0 601Z" fill="#624b98"></path><path d="M0 508L21.5 504.3C43 500.7 86 493.3 128.8 490.3C171.7 487.3 214.3 488.7 257.2 495.8C300 503 343 516 385.8 513.7C428.7 511.3 471.3 493.7 514.2 493.2C557 492.7 600 509.3 642.8 511.7C685.7 514 728.3 502 771.2 502.2C814 502.3 857 514.7 878.5 520.8L900 527L900 601L878.5 601C857 601 814 601 771.2 601C728.3 601 685.7 601 642.8 601C600 601 557 601 514.2 601C471.3 601 428.7 601 385.8 601C343 601 300 601 257.2 601C214.3 601 171.7 601 128.8 601C86 601 43 601 21.5 601L0 601Z" fill="#7760ab"></path><path d="M0 508L21.5 515.7C43 523.3 86 538.7 128.8 542.5C171.7 546.3 214.3 538.7 257.2 530C300 521.3 343 511.7 385.8 513.7C428.7 515.7 471.3 529.3 514.2 530C557 530.7 600 518.3 642.8 516.8C685.7 515.3 728.3 524.7 771.2 529.3C814 534 857 534 878.5 534L900 534L900 601L878.5 601C857 601 814 601 771.2 601C728.3 601 685.7 601 642.8 601C600 601 557 601 514.2 601C471.3 601 428.7 601 385.8 601C343 601 300 601 257.2 601C214.3 601 171.7 601 128.8 601C86 601 43 601 21.5 601L0 601Z" fill="#8c76be"></path><path d="M0 582L21.5 581.5C43 581 86 580 128.8 576.8C171.7 573.7 214.3 568.3 257.2 567.2C300 566 343 569 385.8 565.7C428.7 562.3 471.3 552.7 514.2 549.5C557 546.3 600 549.7 642.8 551C685.7 552.3 728.3 551.7 771.2 554.7C814 557.7 857 564.3 878.5 567.7L900 571L900 601L878.5 601C857 601 814 601 771.2 601C728.3 601 685.7 601 642.8 601C600 601 557 601 514.2 601C471.3 601 428.7 601 385.8 601C343 601 300 601 257.2 601C214.3 601 171.7 601 128.8 601C86 601 43 601 21.5 601L0 601Z" fill="#a18cd1"></path></svg>