<svg id="visual" viewBox="0 0 900 600" width="900" height="600" xmlns="http://www.w3.org/2000/svg" xmlns:xlink="http://www.w3.org/1999/xlink" version="1.1"><rect x="0" y="0" width="900" height="600" fill="#001220"></rect><path d="M0 458L21.5 450.5C43 443 86 428 128.8 411.2C171.7 394.3 214.3 375.7 257.2 376.3C300 377 343 397 385.8 409.2C428.7 421.3 471.3 425.7 514.2 425.5C557 425.3 600 420.7 642.8 411.7C685.7 402.7 728.3 389.3 771.2 386.2C814 383 857 390 878.5 393.5L900 397L900 601L878.5 601C857 601 814 601 771.2 601C728.3 601 685.7 601 642.8 601C600 601 557 601 514.2 601C471.3 601 428.7 601 385.8 601C343 601 300 601 257.2 601C214.3 601 171.7 601 128.8 601C86 601 43 601 21.5 601L0 601Z" fill="#a18cd1"></path><path d="M0 420L21.5 416.5C43 413 86 406 128.8 410.8C171.7 415.7 214.3 432.3 257.2 442C300 451.7 343 454.3 385.8 448.7C428.7 443 471.3 429 514.2 422C557 415 600 415 642.8 423.3C685.7 431.7 728.3 448.3 771.2 454.5C814 460.7 857 456.3 878.5 454.2L900 452L900 601L878.5 601C857 601 814 601 771.2 601C728.3 601 685.7 601 642.8 601C600 601 557 601 514.2 601C471.3 601 428.7 601 385.8 601C343 601 300 601 257.2 601C214.3 601 171.7 601 128.8 601C86 601 43 601 21.5 601L0 601Z" fill="#bb98d8"></path><path d="M0 475L21.5 470.2C43 465.3 86 455.7 128.8 458.2C171.7 460.7 214.3 475.3 257.2 485.2C300 495 343 500 385.8 498.8C428.7 497.7 471.3 490.3 514.2 489.2C557 488 600 493 642.8 488C685.7 483 728.3 468 771.2 465.3C814 462.7 857 472.3 878.5 477.2L900 482L900 601L878.5 601C857 601 814 601 771.2 601C728.3 601 685.7 601 642.8 601C600 601 557 601 514.2 601C471.3 601 428.7 601 385.8 601C343 601 300 601 257.2 601C214.3 601 171.7 601 128.8 601C86 601 43 601 21.5 601L0 601Z" fill="#d2a5de"></path><path d="M0 522L21.5 517.8C43 513.7 86 505.3 128.8 500.8C171.7 496.3 214.3 495.7 257.2 498.5C300 501.3 343 507.7 385.8 506.5C428.7 505.3 471.3 496.7 514.2 498.3C557 500 600 512 642.8 519.8C685.7 527.7 728.3 531.3 771.2 527.2C814 523 857 511 878.5 505L900 499L900 601L878.5 601C857 601 814 601 771.2 601C728.3 601 685.7 601 642.8 601C600 601 557 601 514.2 601C471.3 601 428.7 601 385.8 601C343 601 300 601 257.2 601C214.3 601 171.7 601 128.8 601C86 601 43 601 21.5 601L0 601Z" fill="#e7b3e4"></path><path d="M0 531L21.5 532C43 533 86 535 128.8 539.5C171.7 544 214.3 551 257.2 551.2C300 551.3 343 544.7 385.8 541.7C428.7 538.7 471.3 539.3 514.2 544.3C557 549.3 600 558.7 642.8 560.5C685.7 562.3 728.3 556.7 771.2 551.7C814 546.7 857 542.3 878.5 540.2L900 538L900 601L878.5 601C857 601 814 601 771.2 601C728.3 601 685.7 601 642.8 601C600 601 557 601 514.2 601C471.3 601 428.7 601 385.8 601C343 601 300 601 257.2 601C214.3 601 171.7 601 128.8 601C86 601 43 601 21.5 601L0 601Z" fill="#fbc2eb"></path></svg>