<svg id="visual" viewBox="0 0 900 600" width="900" height="600" xmlns="http://www.w3.org/2000/svg" xmlns:xlink="http://www.w3.org/1999/xlink" version="1.1"><rect x="0" y="0" width="900" height="600" fill="#001220"></rect><path d="M0 447L21.5 447.2C43 447.3 86 447.7 128.8 442.8C171.7 438 214.3 428 257.2 425.8C300 423.7 343 429.3 385.8 438C428.7 446.7 471.3 458.3 514.2 454C557 449.7 600 429.3 642.8 430.5C685.7 431.7 728.3 454.3 771.2 458.7C814 463 857 449 878.5 442L900 435L900 601L878.5 601C857 601 814 601 771.2 601C728.3 601 685.7 601 642.8 601C600 601 557 601 514.2 601C471.3 601 428.7 601 385.8 601C343 601 300 601 257.2 601C214.3 601 171.7 601 128.8 601C86 601 43 601 21.5 601L0 601Z" fill="#fa7268"></path><path d="M0 439L21.5 447.3C43 455.7 86 472.3 128.8 482C171.7 491.7 214.3 494.3 257.2 487.2C300 480 343 463 385.8 454.3C428.7 445.7 471.3 445.3 514.2 450.5C557 455.7 600 466.3 642.8 476C685.7 485.7 728.3 494.3 771.2 489C814 483.7 857 464.3 878.5 454.7L900 445L900 601L878.5 601C857 601 814 601 771.2 601C728.3 601 685.7 601 642.8 601C600 601 557 601 514.2 601C471.3 601 428.7 601 385.8 601C343 601 300 601 257.2 601C214.3 601 171.7 601 128.8 601C86 601 43 601 21.5 601L0 601Z" fill="#ef5f67"></path><path d="M0 485L21.5 487.3C43 489.7 86 494.3 128.8 495.7C171.7 497 214.3 495 257.2 498.7C300 502.3 343 511.7 385.8 516.5C428.7 521.3 471.3 521.7 514.2 521.8C557 522 600 522 642.8 514.2C685.7 506.3 728.3 490.7 771.2 490C814 489.3 857 503.7 878.5 510.8L900 518L900 601L878.5 601C857 601 814 601 771.2 601C728.3 601 685.7 601 642.8 601C600 601 557 601 514.2 601C471.3 601 428.7 601 385.8 601C343 601 300 601 257.2 601C214.3 601 171.7 601 128.8 601C86 601 43 601 21.5 601L0 601Z" fill="#e34c67"></path><path d="M0 548L21.5 543.3C43 538.7 86 529.3 128.8 525.8C171.7 522.3 214.3 524.7 257.2 524C300 523.3 343 519.7 385.8 522C428.7 524.3 471.3 532.7 514.2 538.3C557 544 600 547 642.8 544.8C685.7 542.7 728.3 535.3 771.2 532.5C814 529.7 857 531.3 878.5 532.2L900 533L900 601L878.5 601C857 601 814 601 771.2 601C728.3 601 685.7 601 642.8 601C600 601 557 601 514.2 601C471.3 601 428.7 601 385.8 601C343 601 300 601 257.2 601C214.3 601 171.7 601 128.8 601C86 601 43 601 21.5 601L0 601Z" fill="#d53867"></path><path d="M0 568L21.5 568.7C43 569.3 86 570.7 128.8 567.5C171.7 564.3 214.3 556.7 257.2 557.3C300 558 343 567 385.8 571.2C428.7 575.3 471.3 574.7 514.2 572.2C557 569.7 600 565.3 642.8 561.3C685.7 557.3 728.3 553.7 771.2 555.5C814 557.3 857 564.7 878.5 568.3L900 572L900 601L878.5 601C857 601 814 601 771.2 601C728.3 601 685.7 601 642.8 601C600 601 557 601 514.2 601C471.3 601 428.7 601 385.8 601C343 601 300 601 257.2 601C214.3 601 171.7 601 128.8 601C86 601 43 601 21.5 601L0 601Z" fill="#c62368"></path></svg>