<svg id="visual" viewBox="0 0 900 600" width="900" height="600" xmlns="http://www.w3.org/2000/svg" xmlns:xlink="http://www.w3.org/1999/xlink" version="1.1"><rect x="0" y="0" width="900" height="600" fill="#001220"></rect><path d="M0 455L21.5 452.5C43 450 86 445 128.8 435C171.7 425 214.3 410 257.2 415.7C300 421.3 343 447.7 385.8 459.2C428.7 470.7 471.3 467.3 514.2 460.3C557 453.3 600 442.7 642.8 442.2C685.7 441.7 728.3 451.3 771.2 448.5C814 445.7 857 430.3 878.5 422.7L900 415L900 601L878.5 601C857 601 814 601 771.2 601C728.3 601 685.7 601 642.8 601C600 601 557 601 514.2 601C471.3 601 428.7 601 385.8 601C343 601 300 601 257.2 601C214.3 601 171.7 601 128.8 601C86 601 43 601 21.5 601L0 601Z" fill="#4e3686"></path><path d="M0 499L21.5 487.8C43 476.7 86 454.3 128.8 455.7C171.7 457 214.3 482 257.2 488.3C300 494.7 343 482.3 385.8 481C428.7 479.7 471.3 489.3 514.2 492.5C557 495.7 600 492.3 642.8 488.5C685.7 484.7 728.3 480.3 771.2 481.8C814 483.3 857 490.7 878.5 494.3L900 498L900 601L878.5 601C857 601 814 601 771.2 601C728.3 601 685.7 601 642.8 601C600 601 557 601 514.2 601C471.3 601 428.7 601 385.8 601C343 601 300 601 257.2 601C214.3 601 171.7 601 128.8 601C86 601 43 601 21.5 601L0 601Z" fill="#624b98"></path><path d="M0 533L21.5 525.5C43 518 86 503 128.8 493.8C171.7 484.7 214.3 481.3 257.2 483.8C300 486.3 343 494.7 385.8 503.2C428.7 511.7 471.3 520.3 514.2 521.5C557 522.7 600 516.3 642.8 507.2C685.7 498 728.3 486 771.2 478.3C814 470.7 857 467.3 878.5 465.7L900 464L900 601L878.5 601C857 601 814 601 771.2 601C728.3 601 685.7 601 642.8 601C600 601 557 601 514.2 601C471.3 601 428.7 601 385.8 601C343 601 300 601 257.2 601C214.3 601 171.7 601 128.8 601C86 601 43 601 21.5 601L0 601Z" fill="#7760ab"></path><path d="M0 524L21.5 522.8C43 521.7 86 519.3 128.8 517.3C171.7 515.3 214.3 513.7 257.2 518.5C300 523.3 343 534.7 385.8 540.8C428.7 547 471.3 548 514.2 544.5C557 541 600 533 642.8 530.7C685.7 528.3 728.3 531.7 771.2 529.2C814 526.7 857 518.3 878.5 514.2L900 510L900 601L878.5 601C857 601 814 601 771.2 601C728.3 601 685.7 601 642.8 601C600 601 557 601 514.2 601C471.3 601 428.7 601 385.8 601C343 601 300 601 257.2 601C214.3 601 171.7 601 128.8 601C86 601 43 601 21.5 601L0 601Z" fill="#8c76be"></path><path d="M0 581L21.5 576.5C43 572 86 563 128.8 560.5C171.7 558 214.3 562 257.2 564C300 566 343 566 385.8 567.7C428.7 569.3 471.3 572.7 514.2 569C557 565.3 600 554.7 642.8 552.8C685.7 551 728.3 558 771.2 559C814 560 857 555 878.5 552.5L900 550L900 601L878.5 601C857 601 814 601 771.2 601C728.3 601 685.7 601 642.8 601C600 601 557 601 514.2 601C471.3 601 428.7 601 385.8 601C343 601 300 601 257.2 601C214.3 601 171.7 601 128.8 601C86 601 43 601 21.5 601L0 601Z" fill="#a18cd1"></path></svg>