<svg id="visual" viewBox="0 0 900 600" width="900" height="600" xmlns="http://www.w3.org/2000/svg" xmlns:xlink="http://www.w3.org/1999/xlink" version="1.1"><rect x="0" y="0" width="900" height="600" fill="#001220"></rect><path d="M0 413L21.5 407.8C43 402.7 86 392.3 128.8 384C171.7 375.7 214.3 369.3 257.2 378C300 386.7 343 410.3 385.8 422.8C428.7 435.3 471.3 436.7 514.2 435.3C557 434 600 430 642.8 431.5C685.7 433 728.3 440 771.2 438.5C814 437 857 427 878.5 422L900 417L900 601L878.5 601C857 601 814 601 771.2 601C728.3 601 685.7 601 642.8 601C600 601 557 601 514.2 601C471.3 601 428.7 601 385.8 601C343 601 300 601 257.2 601C214.3 601 171.7 601 128.8 601C86 601 43 601 21.5 601L0 601Z" fill="#4e3686"></path><path d="M0 442L21.5 435C43 428 86 414 128.8 419.3C171.7 424.7 214.3 449.3 257.2 461.8C300 474.3 343 474.7 385.8 462.2C428.7 449.7 471.3 424.3 514.2 419.2C557 414 600 429 642.8 438.2C685.7 447.3 728.3 450.7 771.2 449.7C814 448.7 857 443.3 878.5 440.7L900 438L900 601L878.5 601C857 601 814 601 771.2 601C728.3 601 685.7 601 642.8 601C600 601 557 601 514.2 601C471.3 601 428.7 601 385.8 601C343 601 300 601 257.2 601C214.3 601 171.7 601 128.8 601C86 601 43 601 21.5 601L0 601Z" fill="#624b98"></path><path d="M0 453L21.5 456.5C43 460 86 467 128.8 475.3C171.7 483.7 214.3 493.3 257.2 490.8C300 488.3 343 473.7 385.8 472.5C428.7 471.3 471.3 483.7 514.2 481C557 478.3 600 460.7 642.8 461.5C685.7 462.3 728.3 481.7 771.2 489.2C814 496.7 857 492.3 878.5 490.2L900 488L900 601L878.5 601C857 601 814 601 771.2 601C728.3 601 685.7 601 642.8 601C600 601 557 601 514.2 601C471.3 601 428.7 601 385.8 601C343 601 300 601 257.2 601C214.3 601 171.7 601 128.8 601C86 601 43 601 21.5 601L0 601Z" fill="#7760ab"></path><path d="M0 516L21.5 511C43 506 86 496 128.8 492C171.7 488 214.3 490 257.2 494C300 498 343 504 385.8 506.2C428.7 508.3 471.3 506.7 514.2 511.2C557 515.7 600 526.3 642.8 522.5C685.7 518.7 728.3 500.3 771.2 499.8C814 499.3 857 516.7 878.5 525.3L900 534L900 601L878.5 601C857 601 814 601 771.2 601C728.3 601 685.7 601 642.8 601C600 601 557 601 514.2 601C471.3 601 428.7 601 385.8 601C343 601 300 601 257.2 601C214.3 601 171.7 601 128.8 601C86 601 43 601 21.5 601L0 601Z" fill="#8c76be"></path><path d="M0 538L21.5 538.2C43 538.3 86 538.7 128.8 536.8C171.7 535 214.3 531 257.2 532.7C300 534.3 343 541.7 385.8 549C428.7 556.3 471.3 563.7 514.2 560.2C557 556.7 600 542.3 642.8 538.7C685.7 535 728.3 542 771.2 545.5C814 549 857 549 878.5 549L900 549L900 601L878.5 601C857 601 814 601 771.2 601C728.3 601 685.7 601 642.8 601C600 601 557 601 514.2 601C471.3 601 428.7 601 385.8 601C343 601 300 601 257.2 601C214.3 601 171.7 601 128.8 601C86 601 43 601 21.5 601L0 601Z" fill="#a18cd1"></path></svg>