<svg id="visual" viewBox="0 0 900 600" width="900" height="600" xmlns="http://www.w3.org/2000/svg" xmlns:xlink="http://www.w3.org/1999/xlink" version="1.1"><rect x="0" y="0" width="900" height="600" fill="#001220"></rect><path d="M0 474L21.5 469.8C43 465.7 86 457.3 128.8 452.5C171.7 447.7 214.3 446.3 257.2 449.8C300 453.3 343 461.7 385.8 466.5C428.7 471.3 471.3 472.7 514.2 468.3C557 464 600 454 642.8 441C685.7 428 728.3 412 771.2 406.8C814 401.7 857 407.3 878.5 410.2L900 413L900 601L878.5 601C857 601 814 601 771.2 601C728.3 601 685.7 601 642.8 601C600 601 557 601 514.2 601C471.3 601 428.7 601 385.8 601C343 601 300 601 257.2 601C214.3 601 171.7 601 128.8 601C86 601 43 601 21.5 601L0 601Z" fill="#4e3686"></path><path d="M0 501L21.5 491C43 481 86 461 128.8 452.5C171.7 444 214.3 447 257.2 455.8C300 464.7 343 479.3 385.8 483.2C428.7 487 471.3 480 514.2 474.5C557 469 600 465 642.8 459.8C685.7 454.7 728.3 448.3 771.2 452C814 455.7 857 469.3 878.5 476.2L900 483L900 601L878.5 601C857 601 814 601 771.2 601C728.3 601 685.7 601 642.8 601C600 601 557 601 514.2 601C471.3 601 428.7 601 385.8 601C343 601 300 601 257.2 601C214.3 601 171.7 601 128.8 601C86 601 43 601 21.5 601L0 601Z" fill="#624b98"></path><path d="M0 488L21.5 484.3C43 480.7 86 473.3 128.8 474.3C171.7 475.3 214.3 484.7 257.2 495.3C300 506 343 518 385.8 517.3C428.7 516.7 471.3 503.3 514.2 493.3C557 483.3 600 476.7 642.8 479.3C685.7 482 728.3 494 771.2 496C814 498 857 490 878.5 486L900 482L900 601L878.5 601C857 601 814 601 771.2 601C728.3 601 685.7 601 642.8 601C600 601 557 601 514.2 601C471.3 601 428.7 601 385.8 601C343 601 300 601 257.2 601C214.3 601 171.7 601 128.8 601C86 601 43 601 21.5 601L0 601Z" fill="#7760ab"></path><path d="M0 548L21.5 548.7C43 549.3 86 550.7 128.8 548.2C171.7 545.7 214.3 539.3 257.2 533.5C300 527.7 343 522.3 385.8 518.3C428.7 514.3 471.3 511.7 514.2 517.3C557 523 600 537 642.8 542.5C685.7 548 728.3 545 771.2 544.8C814 544.7 857 547.3 878.5 548.7L900 550L900 601L878.5 601C857 601 814 601 771.2 601C728.3 601 685.7 601 642.8 601C600 601 557 601 514.2 601C471.3 601 428.7 601 385.8 601C343 601 300 601 257.2 601C214.3 601 171.7 601 128.8 601C86 601 43 601 21.5 601L0 601Z" fill="#8c76be"></path><path d="M0 541L21.5 542.3C43 543.7 86 546.3 128.8 552.3C171.7 558.3 214.3 567.7 257.2 565.7C300 563.7 343 550.3 385.8 547.3C428.7 544.3 471.3 551.7 514.2 557.8C557 564 600 569 642.8 567.7C685.7 566.3 728.3 558.7 771.2 558.8C814 559 857 567 878.5 571L900 575L900 601L878.5 601C857 601 814 601 771.2 601C728.3 601 685.7 601 642.8 601C600 601 557 601 514.2 601C471.3 601 428.7 601 385.8 601C343 601 300 601 257.2 601C214.3 601 171.7 601 128.8 601C86 601 43 601 21.5 601L0 601Z" fill="#a18cd1"></path></svg>